<?xml version="1.0" standalone="no"?>
<!DOCTYPE svg PUBLIC "-//W3C//DTD SVG 20010904//EN"
 "http://www.w3.org/TR/2001/REC-SVG-20010904/DTD/svg10.dtd">
<svg version="1.0" xmlns="http://www.w3.org/2000/svg"
 width="700.000000pt" height="700.000000pt" viewBox="0 0 700.000000 700.000000"
 preserveAspectRatio="xMidYMid meet">
<metadata>
Created by potrace 1.11, written by Peter Selinger 2001-2013
</metadata>
<g transform="translate(0.000000,700.000000) scale(0.100000,-0.100000)"
fill="#000000" stroke="none">
<path d="M3457 6828 c-76 -16 -98 -44 -172 -218 -26 -63 -52 -119 -57 -124 -4
-6 -8 -16 -8 -22 0 -7 -13 -42 -30 -77 -16 -36 -30 -68 -30 -71 0 -3 -11 -30
-25 -60 -14 -30 -25 -57 -25 -60 0 -3 -11 -29 -24 -58 -14 -29 -91 -210 -171
-403 -81 -192 -156 -369 -166 -392 -11 -24 -24 -55 -29 -69 -10 -26 -186 -443
-220 -519 -9 -22 -26 -61 -36 -87 -13 -34 -25 -48 -39 -49 -11 -1 -31 -2 -45
-4 -14 -1 -65 -5 -115 -9 -49 -4 -106 -9 -125 -11 -127 -12 -250 -23 -345 -30
-67 -5 -109 -9 -227 -20 -29 -3 -82 -7 -118 -10 -66 -5 -103 -8 -245 -21 -44
-4 -96 -8 -115 -10 -144 -11 -181 -14 -225 -19 -27 -3 -81 -8 -120 -11 -38 -3
-88 -7 -110 -9 -22 -2 -76 -6 -120 -9 -44 -4 -98 -8 -120 -11 -22 -2 -71 -7
-110 -10 -125 -10 -159 -16 -174 -28 -8 -7 -16 -10 -18 -7 -8 10 -57 -47 -75
-88 -21 -47 -19 -101 4 -150 13 -27 117 -119 618 -552 91 -79 194 -169 230
-200 36 -31 83 -72 105 -91 54 -46 90 -78 156 -135 30 -27 152 -132 270 -234
118 -101 225 -195 239 -208 14 -12 53 -46 88 -75 70 -59 68 -38 27 -212 -13
-55 -26 -111 -29 -125 -2 -14 -16 -72 -30 -130 -14 -58 -63 -271 -110 -475
-47 -203 -99 -426 -116 -495 -38 -158 -168 -722 -174 -752 -2 -13 -9 -43 -15
-68 -15 -66 -13 -99 9 -146 37 -76 132 -117 210 -90 27 9 579 336 708 418 15
10 34 21 42 25 24 13 92 54 688 413 l562 340 336 -203 c184 -111 351 -212 372
-225 20 -12 53 -31 72 -42 19 -11 49 -29 65 -40 17 -10 41 -25 55 -33 14 -8
265 -159 558 -335 304 -184 545 -323 560 -324 96 -6 162 27 193 97 26 57 24
82 -27 302 -26 109 -50 214 -54 233 -4 19 -28 123 -53 230 -121 519 -139 597
-143 620 -3 14 -9 36 -14 50 -4 14 -12 43 -16 65 -4 22 -8 47 -10 55 -2 8 -8
33 -14 55 -10 38 -57 241 -135 583 -29 124 -33 155 -23 165 7 7 45 39 83 72
39 33 72 62 75 65 3 4 55 48 115 100 116 99 131 111 210 182 28 24 86 75 130
112 44 38 109 95 145 126 36 31 184 160 330 285 146 126 267 231 270 235 3 3
36 32 75 65 38 33 75 65 81 70 6 6 33 29 61 52 181 154 194 171 198 253 4 72
-43 145 -108 169 -35 14 -78 19 -297 36 -36 3 -85 7 -110 10 -25 2 -79 7 -120
10 -41 3 -95 8 -120 10 -25 2 -101 9 -170 15 -69 6 -145 12 -170 15 -25 2 -79
7 -120 10 -41 3 -95 8 -120 10 -25 3 -74 7 -110 10 -36 3 -87 8 -115 10 -27 3
-75 7 -105 10 -30 2 -91 7 -135 10 -44 3 -96 8 -115 10 -19 2 -71 7 -115 11
-44 3 -96 8 -115 9 -19 2 -73 7 -120 11 -47 3 -94 8 -105 9 -11 1 -31 3 -45 4
-17 1 -29 10 -37 29 -6 15 -35 83 -63 152 -28 69 -57 139 -65 155 -7 17 -38
91 -70 165 -31 74 -62 149 -70 165 -7 17 -25 59 -40 95 -14 36 -32 79 -40 95
-13 30 -142 336 -218 515 -22 52 -59 140 -82 195 -24 55 -85 199 -136 320 -51
121 -100 232 -109 247 -39 65 -113 94 -193 76z"/>
</g>
</svg>
